<?xml version="1.0" encoding="UTF-8" standalone="no"?>
<!-- Created with Inkscape (http://www.inkscape.org/) -->

<svg
   xmlns:dc="http://purl.org/dc/elements/1.1/"
   xmlns:cc="http://creativecommons.org/ns#"
   xmlns:rdf="http://www.w3.org/1999/02/22-rdf-syntax-ns#"
   xmlns:svg="http://www.w3.org/2000/svg"
   xmlns="http://www.w3.org/2000/svg"
   xmlns:sodipodi="http://sodipodi.sourceforge.net/DTD/sodipodi-0.dtd"
   xmlns:inkscape="http://www.inkscape.org/namespaces/inkscape"
   id="svg8173"
   version="1.1"
   inkscape:version="0.91 r13725"
   width="300"
   height="300"
   viewBox="0 0 300 299.99999"
   sodipodi:docname="lightbox.svg"
   inkscape:export-filename="/media/workdata/php/WP-Plugins/git/ithoughts_lightbox/js/icon/lightbox.png"
   inkscape:export-xdpi="9"
   inkscape:export-ydpi="9">
  <metadata
     id="metadata8179">
    <rdf:RDF>
      <cc:Work
         rdf:about="">
        <dc:format>image/svg+xml</dc:format>
        <dc:type
           rdf:resource="http://purl.org/dc/dcmitype/StillImage" />
        <dc:title></dc:title>
      </cc:Work>
    </rdf:RDF>
  </metadata>
  <defs
     id="defs8177" />
  <sodipodi:namedview
     pagecolor="#ffffff"
     bordercolor="#666666"
     borderopacity="1"
     objecttolerance="10"
     gridtolerance="10"
     guidetolerance="10"
     inkscape:pageopacity="0"
     inkscape:pageshadow="2"
     inkscape:window-width="1867"
     inkscape:window-height="1056"
     id="namedview8175"
     showgrid="false"
     showguides="false"
     fit-margin-top="0"
     fit-margin-left="0"
     fit-margin-right="0"
     fit-margin-bottom="0"
     inkscape:zoom="2.6257143"
     inkscape:cx="208.43754"
     inkscape:cy="134.23834"
     inkscape:window-x="53"
     inkscape:window-y="24"
     inkscape:window-maximized="1"
     inkscape:current-layer="svg8173" />
  <path
     style="fill:#777777;fill-opacity:1"
     d="m 46.409578,272.90071 c -7.990339,-2.87009 -13.456241,-8.91002 -14.634622,-16.17153 l -0.599093,-3.69177 8.596017,0 c 7.308021,0 8.871062,0.30392 10.431653,2.02835 1.814855,2.00539 3.123631,2.02836 115.616187,2.02836 108.94074,0 113.85194,-0.0789 115.45899,-1.85467 1.53448,-1.69558 1.67846,-9.35018 1.67846,-89.23899 0,-86.285965 -0.0255,-87.400245 -2.02836,-88.651055 -1.77983,-1.11152 -2.02835,-2.36509 -2.02835,-10.230947 l 0,-8.964218 3.29607,0.687102 c 5.39793,1.125254 11.77743,5.39234 14.72828,9.851372 l 2.76628,4.180125 0,93.544551 0,93.54453 -3.08756,4.39762 c -1.69817,2.41869 -5.12102,5.53856 -7.60633,6.93305 l -4.51877,2.53545 -117.13745,0.21772 c -95.928783,0.17831 -117.824373,-0.029 -120.931402,-1.14505 z M 15.190504,247.42506 C 9.9615431,245.81301 4.7927706,241.21164 1.9487616,235.63692 0.07107978,231.95636 0.00176991,228.5325 0.00176991,139.45741 c 0,-101.028636 -0.27075484,-96.299942 5.88531799,-102.786149 1.5043531,-1.585027 4.4284291,-3.752831 6.4979481,-4.817341 3.641136,-1.872912 7.656844,-1.934753 124.236684,-1.9132 114.68926,0.02121 120.67073,0.111668 124.5726,1.884039 4.53305,2.059082 9.16969,6.999558 11.26767,12.006048 1.11389,2.658103 1.36345,20.342863 1.34531,95.332653 -0.0211,87.24873 -0.1201,92.2845 -1.8906,96.18245 -2.43909,5.36994 -9.23541,11.10833 -14.82241,12.51516 -3.12352,0.78651 -39.08867,1.09862 -120.88126,1.04899 -96.567688,-0.0586 -117.217605,-0.31197 -121.022526,-1.485 z M 254.99485,229.1318 c 1.42444,-1.42442 1.59371,-10.97636 1.59371,-89.92835 0,-80.773116 -0.14368,-88.493422 -1.67845,-90.189326 -1.60744,-1.776204 -6.5919,-1.854668 -117.81822,-1.854668 -106.646071,0 -116.291385,0.137203 -117.994444,1.678451 -1.76967,1.601529 -1.854667,5.717937 -1.854667,89.821353 0,58.81966 0.349266,88.7955 1.04986,90.10457 1.028653,1.92206 3.413686,1.96168 118.079191,1.96168 105.03805,0 117.19262,-0.16329 118.62302,-1.59371 z m -218.482707,-30.59813 0,-13.93667 22.553285,-22.57 22.553283,-22.57001 11.42729,11.39487 11.427289,11.39487 36.2564,-36.24593 c 19.94102,-19.93525 36.71338,-36.245905 37.27192,-36.245905 0.55854,0 14.13349,13.123815 30.16656,29.164045 l 29.15103,29.16403 0,32.19369 0,32.19367 -100.40353,0 -100.403527,0 0,-13.93666 z m 17.459123,-79.56822 c -1.832329,-0.62004 -5.435071,-2.97898 -8.006095,-5.24208 -12.638741,-11.12507 -12.64993,-29.702795 -0.02458,-40.816069 7.08517,-6.236621 16.651738,-8.135099 26.457175,-5.250412 6.067872,1.785122 15.052456,11.020866 16.783362,17.252536 1.646568,5.928 1.029684,15.295825 -1.330843,20.209905 -2.110269,4.39311 -8.03853,10.56321 -12.292323,12.79377 -3.743358,1.9629 -16.987742,2.60857 -21.586692,1.05235 z"
     id="path8183"
     inkscape:connector-curvature="0" />
</svg>
